<svg xmlns="http://www.w3.org/2000/svg" width="34" height="34" viewBox="0 0 34 34" fill="none">
<path d="M33.4831 30.9686L25.1015 22.5525C27.2565 20.0791 28.4373 16.9672 28.4373 13.7275C28.4373 6.15827 22.0587 0 14.2186 0C6.37861 0 0 6.15827 0 13.7275C0 21.2967 6.37861 27.455 14.2186 27.455C17.1619 27.455 19.9667 26.5979 22.3647 24.9709L30.8099 33.4509C31.1629 33.8048 31.6377 34 32.1465 34C32.6281 34 33.0849 33.8227 33.4317 33.5004C34.1686 32.8159 34.1921 31.6807 33.4831 30.9686ZM14.2186 3.58108C20.0137 3.58108 24.7281 8.13264 24.7281 13.7275C24.7281 19.3223 20.0137 23.8739 14.2186 23.8739C8.42362 23.8739 3.70921 19.3223 3.70921 13.7275C3.70921 8.13264 8.42362 3.58108 14.2186 3.58108Z" fill="white"/>
</svg>